HIERARCHY
ROOT Hips
{
	OFFSET 0.000000 0.000000 0.000000
	CHANNELS 6 Xposition Yposition Zposition Xrotation Yrotation Zrotation
	JOINT LeftUpLeg_virtual
	{
		OFFSET 0.000000 0.000000 0.000000
		CHANNELS 3 Xrotation Yrotation Zrotation
		JOINT LeftUpLeg
		{
			OFFSET 10.205400 -3.823500 0.155100
			CHANNELS 3 Xrotation Yrotation Zrotation
			JOINT LeftLeg
			{
				OFFSET 0.708757 -12.982077 0.567790
				CHANNELS 3 Xrotation Yrotation Zrotation
				JOINT LeftFoot
				{
					OFFSET -0.708756 -10.717838 -2.184338
					CHANNELS 3 Xrotation Yrotation Zrotation
					JOINT LeftToeBase
					{
						OFFSET 0.108149 -7.191104 7.560241
						CHANNELS 3 Xrotation Yrotation Zrotation
						JOINT LeftToe_End
						{
							OFFSET 0.070230 0.081724 4.490308
							CHANNELS 3 Xrotation Yrotation Zrotation
							End Site
							{
								OFFSET 0 0 0
							}
						}
					}
				}
			}
		}
	}
	JOINT RightUpLeg_virtual
	{
		OFFSET 0.000000 0.000000 0.000000
		CHANNELS 3 Xrotation Yrotation Zrotation
		JOINT RightUpLeg
		{
			OFFSET -10.205400 -3.823500 0.005500
			CHANNELS 3 Xrotation Yrotation Zrotation
			JOINT RightLeg
			{
				OFFSET -0.708756 -12.982134 0.610632
				CHANNELS 3 Xrotation Yrotation Zrotation
				JOINT RightFoot
				{
					OFFSET 0.708754 -10.717769 -1.945823
					CHANNELS 3 Xrotation Yrotation Zrotation
					JOINT RightToeBase
					{
						OFFSET -0.108140 -7.191069 7.372968
						CHANNELS 3 Xrotation Yrotation Zrotation
						JOINT RightToe_End
						{
							OFFSET -0.070227 0.081735 4.479403
							CHANNELS 3 Xrotation Yrotation Zrotation
							End Site
							{
								OFFSET 0 0 0
							}
						}
					}
				}
			}
		}
	}
	JOINT Spine_virtual
	{
		OFFSET 0.000000 0.000000 0.000000
		CHANNELS 3 Xrotation Yrotation Zrotation
		JOINT Spine
		{
			OFFSET 0.000000 6.876099 0.125700
			CHANNELS 3 Xrotation Yrotation Zrotation
			JOINT Spine1
			{
				OFFSET 0.000000 5.730043 0.104720
				CHANNELS 3 Xrotation Yrotation Zrotation
				JOINT Spine1_split
				{
					OFFSET 0.000000 5.730043 0.104720
					CHANNELS 3 Xrotation Yrotation Zrotation
					JOINT Spine2
					{
						OFFSET 0.000000 5.730043 0.104720
						CHANNELS 3 Xrotation Yrotation Zrotation
						JOINT Neck_virtual
						{
							OFFSET 0.000000 0.000000 0.000000
							CHANNELS 3 Xrotation Yrotation Zrotation
							JOINT Neck
							{
								OFFSET 0.000000 10.314075 0.188496
								CHANNELS 3 Xrotation Yrotation Zrotation
								JOINT Head
								{
									OFFSET 0.000000 7.643700 -2.377400
									CHANNELS 3 Xrotation Yrotation Zrotation
									JOINT HeadTop_End
									{
										OFFSET 0.000000 43.788605 -13.619600
										CHANNELS 3 Xrotation Yrotation Zrotation
										End Site
										{
											OFFSET 0 0 0
										}
									}
								}
							}
						}
						JOINT LeftShoulder_virtual
						{
							OFFSET 0.000000 0.000000 0.000000
							CHANNELS 3 Xrotation Yrotation Zrotation
							JOINT LeftShoulder
							{
								OFFSET 2.196100 4.412489 0.087492
								CHANNELS 3 Xrotation Yrotation Zrotation
								JOINT LeftShoulder_split
								{
									OFFSET 2.196100 4.412489 0.087492
									CHANNELS 3 Xrotation Yrotation Zrotation
									JOINT LeftArm
									{
										OFFSET 8.771219 -2.981674 -0.026999
										CHANNELS 3 Xrotation Yrotation Zrotation
										JOINT LeftForeArm
										{
											OFFSET 8.512804 0.000000 -0.000000
											CHANNELS 3 Xrotation Yrotation Zrotation
											JOINT LeftHand
											{
												OFFSET 18.484802 0.000000 -0.000000
												CHANNELS 3 Xrotation Yrotation Zrotation
												End Site
												{
													OFFSET 0 0 0
												}
											}
										}
									}
								}
							}
						}
						JOINT RightShoulder_virtual
						{
							OFFSET 0.000000 0.000000 0.000000
							CHANNELS 3 Xrotation Yrotation Zrotation
							JOINT RightShoulder
							{
								OFFSET -2.196100 4.412496 0.070690
								CHANNELS 3 Xrotation Yrotation Zrotation
								JOINT RightShoulder_split
								{
									OFFSET -2.196100 4.412496 0.070690
									CHANNELS 3 Xrotation Yrotation Zrotation
									JOINT RightArm
									{
										OFFSET -8.771282 -2.981682 -0.094208
										CHANNELS 3 Xrotation Yrotation Zrotation
										JOINT RightForeArm
										{
											OFFSET -8.494598 0.000000 0.000000
											CHANNELS 3 Xrotation Yrotation Zrotation
											JOINT RightHand
											{
												OFFSET -18.483803 0.000000 0.000001
												CHANNELS 3 Xrotation Yrotation Zrotation
												End Site
												{
													OFFSET 0 0 0
												}
											}
										}
									}
								}
							}
						}
					}
				}
			}
		}
	}
}
MOTION
Frames: 7
Frame Time: 0.03333333
0.753040 49.635429 7.337312 0.000000 0.000000 0.000000 4.489646 -39.600416 2.469516 -83.630312 -20.059086 23.979618 86.112020 -0.520187 3.396650 2.228665 2.053720 -2.518911 -9.818428 1.247485 0.542795 0.000000 0.000000 0.000000 4.154472 -39.518580 1.689494 -118.006722 -39.580905 -0.262299 116.791372 17.320397 -12.669937 41.558768 6.461003 28.320012 7.818624 2.004685 -2.980361 0.000000 0.000000 0.000000 3.781522 -39.196413 0.845962 32.255514 -6.005772 -8.497472 13.548048 0.888589 -3.608899 0.306579 -0.385402 1.274750 0.000000 0.000000 0.000000 13.178916 1.215292 -2.709648 -7.256051 19.058415 -12.816407 -25.227891 11.066649 4.800459 0.000000 0.000000 0.000000 14.612281 1.316276 -2.992736 13.476497 -17.212989 4.174805 1.521878 -3.170818 -4.226285 -57.527746 -11.596620 -3.792953 48.104875 -17.028469 29.998710 0.000000 0.000000 0.000000 14.885248 1.333167 -3.037934 18.943140 26.125673 -8.104845 1.174385 6.228298 2.712441 -37.396071 1.655224 6.273708 -44.694767 45.308924 32.990527 0.000000 0.000000 0.000000 
0.758019 49.615906 7.338676 0.000000 0.000000 0.000000 4.506157 -39.816192 2.523585 -83.586311 -19.987644 24.066996 86.040194 -0.623329 3.217948 2.071554 2.347947 -2.560342 -9.803036 1.246085 0.512053 0.000000 0.000000 0.000000 4.160801 -39.729913 1.739676 -117.502176 -39.645597 -0.061604 116.491991 17.409360 -12.732003 41.238961 6.327384 27.988604 7.809536 2.005379 -3.035631 0.000000 0.000000 0.000000 3.753616 -39.335493 0.889841 32.211261 -5.987384 -8.526367 13.497756 0.900040 -3.581182 0.253232 -0.377624 1.295149 0.000000 0.000000 0.000000 13.211187 1.219945 -2.702249 -7.201680 19.103390 -12.800781 -24.964044 11.218340 4.707842 0.000000 0.000000 0.000000 14.587867 1.330643 -2.954364 13.211059 -17.334446 3.428809 1.690025 -3.257102 -4.505027 -56.795840 -10.982178 -3.795077 47.916366 -16.738033 29.681735 0.000000 0.000000 0.000000 14.864308 1.327180 -3.027192 18.481293 26.476132 -7.113393 1.248849 6.278203 2.672317 -36.361113 1.706038 6.106235 -44.688005 45.073620 32.853271 0.000000 0.000000 0.000000 
0.759677 49.595772 7.338121 0.000000 0.000000 0.000000 4.573252 -39.973716 2.624748 -83.495764 -19.932278 24.070061 85.894164 -0.772034 3.045175 1.801999 2.678777 -2.608475 -9.810666 1.228741 0.515389 0.000000 0.000000 0.000000 4.201876 -39.867182 1.819127 -117.018257 -39.666122 0.121579 116.210642 17.451263 -12.786421 40.884382 6.219751 27.706818 7.809644 2.000120 -3.067390 0.000000 0.000000 0.000000 3.755560 -39.453471 0.961924 32.106346 -5.964346 -8.542626 13.437670 0.902791 -3.554235 0.228993 -0.385056 1.311327 0.000000 0.000000 0.000000 13.228895 1.219486 -2.699193 -7.119842 19.134305 -12.778547 -24.677936 11.364800 4.657674 0.000000 0.000000 0.000000 14.552090 1.340102 -2.920248 13.001166 -17.402569 2.787477 1.778644 -3.369407 -4.809622 -56.033250 -10.186658 -3.648757 47.645351 -16.506100 29.355993 0.000000 0.000000 0.000000 14.824714 1.319727 -3.016175 18.061511 26.753439 -6.255159 1.340412 6.320227 2.710656 -35.479202 1.465242 5.794971 -44.735956 44.780202 32.743370 0.000000 0.000000 0.000000 
0.758449 49.578960 7.328595 0.000000 0.000000 0.000000 4.686168 -40.053363 2.786080 -83.366058 -19.887713 23.980459 85.681370 -0.943895 2.884099 1.481865 3.045927 -2.653539 -9.835925 1.198986 0.546752 0.000000 0.000000 0.000000 4.278613 -39.939217 1.951267 -116.585510 -39.637937 0.228727 115.941997 17.461008 -12.824553 40.515487 6.166761 27.491079 7.803981 1.991842 -3.086399 0.000000 0.000000 0.000000 3.780436 -39.545914 1.083372 31.962867 -5.953461 -8.549876 13.377798 0.894701 -3.531657 0.249853 -0.380760 1.361555 0.000000 0.000000 0.000000 13.234134 1.212634 -2.702507 -7.036946 19.154543 -12.750349 -24.410840 11.507971 4.644118 0.000000 0.000000 0.000000 14.503567 1.341839 -2.895789 12.831007 -17.426166 2.195230 1.766639 -3.443669 -5.125690 -55.258228 -9.207921 -3.405851 47.382706 -16.379569 29.092299 0.000000 0.000000 0.000000 14.764463 1.308783 -3.006042 17.689652 26.969082 -5.509762 1.466562 6.361236 2.813015 -34.810517 1.106872 5.419142 -44.760330 44.396288 32.580938 0.000000 0.000000 0.000000 
0.750936 49.567543 7.317108 0.000000 0.000000 0.000000 4.811914 -40.073478 3.004174 -83.183849 -19.830739 23.836882 85.405580 -1.110378 2.725420 1.150344 3.456830 -2.669011 -9.887619 1.164457 0.591502 0.000000 0.000000 0.000000 4.394964 -39.965715 2.148717 -116.229520 -39.558403 0.207752 115.698514 17.460088 -12.834035 40.160218 6.183003 27.342729 7.769993 1.982762 -3.103619 0.000000 0.000000 0.000000 3.819027 -39.606833 1.250782 31.802512 -5.961438 -8.554839 13.312965 0.879711 -3.519780 0.298279 -0.366454 1.371397 0.000000 0.000000 0.000000 13.217067 1.200438 -2.712083 -6.970727 19.170966 -12.730974 -24.187413 11.667940 4.658011 0.000000 0.000000 0.000000 14.434807 1.335443 -2.881579 12.667619 -17.408936 1.571804 1.658451 -3.427244 -5.339591 -54.502820 -8.022040 -3.064924 47.254309 -16.420774 28.971781 0.000000 0.000000 0.000000 14.679951 1.293051 -3.000406 17.359108 27.125666 -4.835922 1.583030 6.375456 2.965529 -34.304372 0.766367 5.027768 -44.741185 43.953036 32.363263 0.000000 0.000000 0.000000 
0.743831 49.559692 7.301842 0.000000 0.000000 0.000000 4.944457 -40.065446 3.273686 -82.964081 -19.732975 23.663440 85.089172 -1.257655 2.571025 0.838145 3.887613 -2.649636 -9.968580 1.131338 0.639229 0.000000 0.000000 0.000000 4.531481 -39.978286 2.401021 -115.973197 -39.432820 0.039721 115.500630 17.470441 -12.821557 39.844438 6.272728 27.255701 7.693910 1.974369 -3.126680 0.000000 0.000000 0.000000 3.856687 -39.642449 1.458170 31.646418 -5.984762 -8.557489 13.240546 0.861539 -3.514533 0.334055 -0.365276 1.365249 0.000000 0.000000 0.000000 13.172114 1.184868 -2.723070 -6.936894 19.185694 -12.728500 -24.005086 11.834062 4.683581 0.000000 0.000000 0.000000 14.341152 1.325070 -2.875116 12.487692 -17.323586 0.860353 1.475949 -3.328035 -5.403160 -53.833512 -6.660977 -2.655503 47.285656 -16.581503 29.002510 0.000000 0.000000 0.000000 14.574659 1.274157 -2.996436 17.057289 27.219465 -4.179776 1.679445 6.325728 3.128743 -33.914939 0.458933 4.687437 -44.641054 43.459175 32.075023 0.000000 0.000000 0.000000 
0.733276 49.554771 7.290340 0.000000 0.000000 0.000000 5.053863 -40.059367 3.567999 -82.710394 -19.572682 23.517931 84.755005 -1.399136 2.424456 0.560838 4.283620 -2.626468 -10.052708 1.100139 0.682655 0.000000 0.000000 0.000000 4.669269 -39.996645 2.692230 -115.831675 -39.272867 -0.255555 115.355529 17.496571 -12.789884 39.583081 6.413903 27.211537 7.566426 1.968011 -3.153162 0.000000 0.000000 0.000000 3.877707 -39.652564 1.670421 31.502239 -6.013450 -8.559087 13.152777 0.843365 -3.506474 0.369295 -0.338661 1.315155 0.000000 0.000000 0.000000 13.094165 1.167566 -2.731234 -6.933109 19.195593 -12.750447 -23.844003 11.992795 4.700224 0.000000 0.000000 0.000000 14.228546 1.312008 -2.870414 12.279874 -17.134535 0.049965 1.223061 -3.151391 -5.374606 -53.280065 -5.133391 -2.217944 47.404327 -16.726158 29.101810 0.000000 0.000000 0.000000 14.446260 1.254100 -2.983054 16.763262 27.211842 -3.509756 1.698882 6.269485 3.254398 -33.514072 0.108550 4.446154 -44.508354 43.009985 31.809151 0.000000 0.000000 0.000000 
